<mxfile host="Electron" agent="Mozilla/5.0 (Windows NT 10.0; Win64; x64) AppleWebKit/537.36 (KHTML, like Gecko) draw.io/27.0.9 Chrome/134.0.6998.205 Electron/35.4.0 Safari/537.36" version="27.0.9">
  <diagram name="第 1 页" id="0YYJ3WNDVQ0fW1VofjjR">
    <mxGraphModel dx="2431" dy="1413" grid="1" gridSize="10" guides="1" tooltips="1" connect="1" arrows="1" fold="1" page="1" pageScale="1" pageWidth="1169" pageHeight="1654" math="0" shadow="0">
      <root>
        <mxCell id="0" />
        <mxCell id="1" parent="0" />
        <mxCell id="6PRzyqPz1Fcx_c-LDYBp-225" value="" style="rounded=0;whiteSpace=wrap;html=1;fillColor=#f5f5f5;fontColor=#333333;strokeColor=none;" vertex="1" parent="1">
          <mxGeometry x="85.34" y="110" width="1274.66" height="1210" as="geometry" />
        </mxCell>
        <mxCell id="6PRzyqPz1Fcx_c-LDYBp-34" style="edgeStyle=orthogonalEdgeStyle;rounded=0;orthogonalLoop=1;jettySize=auto;html=1;entryX=0;entryY=0.5;entryDx=0;entryDy=0;fillColor=#dae8fc;strokeColor=#6c8ebf;strokeWidth=2;" edge="1" parent="1" source="6PRzyqPz1Fcx_c-LDYBp-2" target="6PRzyqPz1Fcx_c-LDYBp-3">
          <mxGeometry relative="1" as="geometry" />
        </mxCell>
        <mxCell id="6PRzyqPz1Fcx_c-LDYBp-2" value="&lt;h2&gt;&lt;font style=&quot;font-size: 18px;&quot;&gt;1、概述和原理&lt;/font&gt;&lt;/h2&gt;" style="rounded=1;whiteSpace=wrap;html=1;fillColor=#dae8fc;strokeColor=#6c8ebf;fontStyle=1;align=left;" vertex="1" parent="1">
          <mxGeometry x="234.33999999999992" y="130" width="147.33" height="40" as="geometry" />
        </mxCell>
        <mxCell id="6PRzyqPz1Fcx_c-LDYBp-3" value="&lt;span style=&quot;font-size: 16px;&quot;&gt;一个不可分割的动作，要么完全执行完成，要么完全不执行，绝不会被打断到一半&lt;/span&gt;" style="text;html=1;align=left;verticalAlign=middle;whiteSpace=wrap;rounded=0;fillColor=#dae8fc;strokeColor=#6c8ebf;dashed=1;fontSize=14;" vertex="1" parent="1">
          <mxGeometry x="408.8399999999999" y="130" width="620.33" height="40" as="geometry" />
        </mxCell>
        <mxCell id="6PRzyqPz1Fcx_c-LDYBp-4" value="&lt;h1&gt;&lt;span style=&quot;font-size: 20px;&quot;&gt;原子锁&lt;/span&gt;&lt;/h1&gt;" style="ellipse;whiteSpace=wrap;html=1;fillColor=#1ba1e2;strokeColor=#006EAF;fontColor=#ffffff;fontStyle=1" vertex="1" parent="1">
          <mxGeometry x="100" y="649" width="105.34" height="70" as="geometry" />
        </mxCell>
        <mxCell id="6PRzyqPz1Fcx_c-LDYBp-5" value="" style="shape=curlyBracket;whiteSpace=wrap;html=1;rounded=1;labelPosition=left;verticalLabelPosition=middle;align=right;verticalAlign=middle;fillColor=#f5f5f5;strokeColor=#1BA1E2;strokeWidth=2;fontColor=#333333;" vertex="1" parent="1">
          <mxGeometry x="205.33999999999997" y="143" width="29" height="1082" as="geometry" />
        </mxCell>
        <mxCell id="6PRzyqPz1Fcx_c-LDYBp-8" value="&lt;h2&gt;4、整型API&lt;/h2&gt;" style="rounded=1;whiteSpace=wrap;html=1;fillColor=#f8cecc;strokeColor=#b85450;fontStyle=1;align=left;" vertex="1" parent="1">
          <mxGeometry x="234.84999999999985" y="580" width="147.33" height="40" as="geometry" />
        </mxCell>
        <mxCell id="6PRzyqPz1Fcx_c-LDYBp-10" value="" style="shape=curlyBracket;whiteSpace=wrap;html=1;rounded=1;labelPosition=left;verticalLabelPosition=middle;align=right;verticalAlign=middle;fillColor=#f8cecc;strokeColor=#b85450;strokeWidth=2;" vertex="1" parent="1">
          <mxGeometry x="380" y="395" width="29" height="410" as="geometry" />
        </mxCell>
        <mxCell id="6PRzyqPz1Fcx_c-LDYBp-11" value="&lt;font style=&quot;font-size: 20px;&quot;&gt;🌻Make By Dakkk&lt;/font&gt;" style="html=1;shadow=0;dashed=0;shape=mxgraph.bootstrap.rrect;rSize=5;strokeColor=#1CA5B8;strokeWidth=1;fillColor=none;fontColor=#1CA5B8;whiteSpace=wrap;align=center;verticalAlign=middle;spacingLeft=0;fontStyle=1;fontSize=16;spacing=5;" vertex="1" parent="1">
          <mxGeometry x="251.65999999999997" y="415" width="111.67" height="70.39" as="geometry" />
        </mxCell>
        <mxCell id="6PRzyqPz1Fcx_c-LDYBp-35" value="&lt;h2&gt;2、分类&lt;/h2&gt;" style="rounded=1;whiteSpace=wrap;html=1;fillColor=#d5e8d4;strokeColor=#82b366;fontStyle=1;align=left;" vertex="1" parent="1">
          <mxGeometry x="234.33999999999986" y="205" width="147.33" height="40" as="geometry" />
        </mxCell>
        <mxCell id="6PRzyqPz1Fcx_c-LDYBp-36" value="&lt;span style=&quot;font-size: 16px;&quot;&gt;&lt;b&gt;整型原子操作：&lt;/b&gt;对整型数据进行原子操作&lt;/span&gt;" style="text;html=1;align=left;verticalAlign=middle;whiteSpace=wrap;rounded=0;fillColor=#d5e8d4;strokeColor=#82b366;dashed=1;fontSize=14;" vertex="1" parent="1">
          <mxGeometry x="409.5100000000001" y="185" width="618.34" height="36" as="geometry" />
        </mxCell>
        <mxCell id="6PRzyqPz1Fcx_c-LDYBp-37" value="&lt;span style=&quot;font-size: 16px;&quot;&gt;&lt;b&gt;位原子操作&amp;nbsp; &amp;nbsp; ：&lt;/b&gt;对数据的bit位进行原子操作&lt;/span&gt;" style="text;html=1;align=left;verticalAlign=middle;whiteSpace=wrap;rounded=0;fillColor=#d5e8d4;strokeColor=#82b366;dashed=1;fontSize=14;" vertex="1" parent="1">
          <mxGeometry x="409.0000000000001" y="228" width="618.34" height="36" as="geometry" />
        </mxCell>
        <mxCell id="6PRzyqPz1Fcx_c-LDYBp-38" value="" style="shape=curlyBracket;whiteSpace=wrap;html=1;rounded=1;labelPosition=left;verticalLabelPosition=middle;align=right;verticalAlign=middle;fillColor=#d5e8d4;strokeColor=#82b366;strokeWidth=2;" vertex="1" parent="1">
          <mxGeometry x="382.18" y="205" width="29" height="40" as="geometry" />
        </mxCell>
        <mxCell id="6PRzyqPz1Fcx_c-LDYBp-39" value="&lt;h2&gt;3、数据结构&lt;/h2&gt;" style="rounded=1;whiteSpace=wrap;html=1;fillColor=#fff2cc;strokeColor=#d6b656;fontStyle=1;align=left;" vertex="1" parent="1">
          <mxGeometry x="233.82999999999987" y="295.5" width="147.33" height="40" as="geometry" />
        </mxCell>
        <mxCell id="6PRzyqPz1Fcx_c-LDYBp-40" value="&lt;span style=&quot;font-size: 16px;&quot;&gt;&lt;b&gt;atomic_t&amp;nbsp; /&amp;nbsp;&amp;nbsp;&lt;/b&gt;&lt;/span&gt;&lt;b style=&quot;font-size: 16px;&quot;&gt;atomic64_t&lt;/b&gt;&lt;span style=&quot;font-size: 16px;&quot;&gt;&lt;b&gt;：&lt;/b&gt;用于32 / 64位系统的整型数据原子操作&lt;/span&gt;" style="text;html=1;align=left;verticalAlign=middle;whiteSpace=wrap;rounded=0;fillColor=#fff2cc;strokeColor=#d6b656;dashed=1;fontSize=14;" vertex="1" parent="1">
          <mxGeometry x="409.0000000000001" y="275.5" width="618.34" height="36" as="geometry" />
        </mxCell>
        <mxCell id="6PRzyqPz1Fcx_c-LDYBp-41" value="&lt;span style=&quot;font-size: 16px;&quot;&gt;结构体封装可以确保类型安全&lt;/span&gt;" style="text;html=1;align=left;verticalAlign=middle;whiteSpace=wrap;rounded=0;fillColor=#fff2cc;strokeColor=#d6b656;dashed=1;fontSize=14;" vertex="1" parent="1">
          <mxGeometry x="408.4900000000001" y="318.5" width="618.34" height="36" as="geometry" />
        </mxCell>
        <mxCell id="6PRzyqPz1Fcx_c-LDYBp-42" value="" style="shape=curlyBracket;whiteSpace=wrap;html=1;rounded=1;labelPosition=left;verticalLabelPosition=middle;align=right;verticalAlign=middle;fillColor=#fff2cc;strokeColor=#d6b656;strokeWidth=2;" vertex="1" parent="1">
          <mxGeometry x="381.67" y="295.5" width="29" height="40" as="geometry" />
        </mxCell>
        <mxCell id="6PRzyqPz1Fcx_c-LDYBp-43" value="" style="rounded=0;whiteSpace=wrap;html=1;fillColor=none;strokeColor=#d6b656;" vertex="1" parent="1">
          <mxGeometry x="1108" y="135" width="150" height="210" as="geometry" />
        </mxCell>
        <mxCell id="6PRzyqPz1Fcx_c-LDYBp-44" value="&lt;span style=&quot;font-size: 18px;&quot;&gt;数据结构&lt;/span&gt;" style="html=1;shadow=0;dashed=0;shape=mxgraph.bootstrap.rrect;rSize=5;strokeColor=#d6b656;strokeWidth=1;fillColor=#fff2cc;whiteSpace=wrap;align=center;verticalAlign=middle;spacingLeft=0;fontStyle=1;fontSize=14;spacing=5;" vertex="1" parent="1">
          <mxGeometry x="1108" y="135" width="150" height="30" as="geometry" />
        </mxCell>
        <mxCell id="6PRzyqPz1Fcx_c-LDYBp-45" value="&lt;span style=&quot;font-size: 16px;&quot;&gt;typedef struct {&lt;/span&gt;" style="text;html=1;align=left;verticalAlign=middle;whiteSpace=wrap;rounded=0;dashed=1;fontSize=14;" vertex="1" parent="1">
          <mxGeometry x="1108" y="165" width="150" height="20" as="geometry" />
        </mxCell>
        <mxCell id="6PRzyqPz1Fcx_c-LDYBp-47" value="#ifdef CONFIG_64BIT" style="text;html=1;align=left;verticalAlign=middle;whiteSpace=wrap;rounded=0;dashed=1;fontSize=14;" vertex="1" parent="1">
          <mxGeometry x="1108" y="245" width="150" height="20" as="geometry" />
        </mxCell>
        <mxCell id="6PRzyqPz1Fcx_c-LDYBp-48" value="&lt;span style=&quot;font-size: 16px; white-space: pre;&quot;&gt;&lt;span style=&quot;white-space: pre;&quot;&gt;&#x9;&lt;/span&gt;long counter;&lt;/span&gt;" style="text;html=1;align=left;verticalAlign=middle;whiteSpace=wrap;rounded=0;dashed=1;fontSize=14;" vertex="1" parent="1">
          <mxGeometry x="1108" y="285" width="150" height="20" as="geometry" />
        </mxCell>
        <mxCell id="6PRzyqPz1Fcx_c-LDYBp-49" value="&lt;font style=&quot;font-size: 16px;&quot;&gt;} atomic64_t;&lt;/font&gt;" style="text;html=1;align=left;verticalAlign=middle;whiteSpace=wrap;rounded=0;dashed=1;fontSize=14;" vertex="1" parent="1">
          <mxGeometry x="1108" y="305" width="150" height="20" as="geometry" />
        </mxCell>
        <mxCell id="6PRzyqPz1Fcx_c-LDYBp-50" value="&lt;span style=&quot;font-size: 16px;&quot;&gt;} atomic_t;&lt;/span&gt;" style="text;html=1;align=left;verticalAlign=middle;whiteSpace=wrap;rounded=0;dashed=1;fontSize=14;" vertex="1" parent="1">
          <mxGeometry x="1108" y="205" width="150" height="20" as="geometry" />
        </mxCell>
        <mxCell id="6PRzyqPz1Fcx_c-LDYBp-51" value="&lt;font style=&quot;font-size: 16px;&quot;&gt;typedef struct {&lt;/font&gt;" style="text;html=1;align=left;verticalAlign=middle;whiteSpace=wrap;rounded=0;dashed=1;fontSize=14;" vertex="1" parent="1">
          <mxGeometry x="1108" y="265" width="150" height="20" as="geometry" />
        </mxCell>
        <mxCell id="6PRzyqPz1Fcx_c-LDYBp-52" value="&lt;span style=&quot;font-size: 16px;&quot;&gt;#endif&lt;/span&gt;" style="text;html=1;align=left;verticalAlign=middle;whiteSpace=wrap;rounded=0;dashed=1;fontSize=14;" vertex="1" parent="1">
          <mxGeometry x="1108" y="325" width="150" height="20" as="geometry" />
        </mxCell>
        <mxCell id="6PRzyqPz1Fcx_c-LDYBp-53" value="&lt;span style=&quot;font-size: 16px;&quot;&gt;&lt;span style=&quot;white-space: pre;&quot;&gt;&#x9;&lt;/span&gt;int counter;&lt;/span&gt;" style="text;html=1;align=left;verticalAlign=middle;whiteSpace=wrap;rounded=0;dashed=1;fontSize=14;" vertex="1" parent="1">
          <mxGeometry x="1108" y="185" width="150" height="20" as="geometry" />
        </mxCell>
        <mxCell id="6PRzyqPz1Fcx_c-LDYBp-55" style="edgeStyle=orthogonalEdgeStyle;rounded=0;orthogonalLoop=1;jettySize=auto;html=1;entryX=0;entryY=0.09;entryDx=0;entryDy=0;entryPerimeter=0;fillColor=#fff2cc;strokeColor=#d6b656;strokeWidth=2;" edge="1" parent="1" source="6PRzyqPz1Fcx_c-LDYBp-40" target="6PRzyqPz1Fcx_c-LDYBp-43">
          <mxGeometry relative="1" as="geometry" />
        </mxCell>
        <mxCell id="6PRzyqPz1Fcx_c-LDYBp-56" value="" style="shape=table;startSize=0;container=1;collapsible=0;childLayout=tableLayout;fillColor=none;strokeColor=#b85450;" vertex="1" parent="1">
          <mxGeometry x="408.84000000000003" y="415" width="898.9599999999991" height="420" as="geometry" />
        </mxCell>
        <mxCell id="6PRzyqPz1Fcx_c-LDYBp-57" value="" style="shape=tableRow;horizontal=0;startSize=0;swimlaneHead=0;swimlaneBody=0;strokeColor=#b85450;top=0;left=0;bottom=0;right=0;collapsible=0;dropTarget=0;fillColor=#f8cecc;points=[[0,0.5],[1,0.5]];portConstraint=eastwest;" vertex="1" parent="6PRzyqPz1Fcx_c-LDYBp-56">
          <mxGeometry width="898.9599999999991" height="30" as="geometry" />
        </mxCell>
        <mxCell id="6PRzyqPz1Fcx_c-LDYBp-58" value="函数" style="shape=partialRectangle;html=1;whiteSpace=wrap;connectable=0;strokeColor=#b85450;overflow=hidden;fillColor=#f8cecc;top=0;left=0;bottom=0;right=0;pointerEvents=1;fontSize=16;fontStyle=1" vertex="1" parent="6PRzyqPz1Fcx_c-LDYBp-57">
          <mxGeometry width="329" height="30" as="geometry">
            <mxRectangle width="329" height="30" as="alternateBounds" />
          </mxGeometry>
        </mxCell>
        <mxCell id="6PRzyqPz1Fcx_c-LDYBp-59" value="参数" style="shape=partialRectangle;html=1;whiteSpace=wrap;connectable=0;strokeColor=#b85450;overflow=hidden;fillColor=#f8cecc;top=0;left=0;bottom=0;right=0;pointerEvents=1;fontSize=16;fontStyle=1" vertex="1" parent="6PRzyqPz1Fcx_c-LDYBp-57">
          <mxGeometry x="329" width="120" height="30" as="geometry">
            <mxRectangle width="120" height="30" as="alternateBounds" />
          </mxGeometry>
        </mxCell>
        <mxCell id="6PRzyqPz1Fcx_c-LDYBp-60" value="返回值" style="shape=partialRectangle;html=1;whiteSpace=wrap;connectable=0;strokeColor=#b85450;overflow=hidden;fillColor=#f8cecc;top=0;left=0;bottom=0;right=0;pointerEvents=1;fontSize=16;fontStyle=1" vertex="1" parent="6PRzyqPz1Fcx_c-LDYBp-57">
          <mxGeometry x="449" width="140" height="30" as="geometry">
            <mxRectangle width="140" height="30" as="alternateBounds" />
          </mxGeometry>
        </mxCell>
        <mxCell id="6PRzyqPz1Fcx_c-LDYBp-61" value="描述" style="shape=partialRectangle;html=1;whiteSpace=wrap;connectable=0;strokeColor=#000000;overflow=hidden;fillColor=#f8cecc;top=0;left=0;bottom=0;right=0;pointerEvents=1;fontSize=16;fontStyle=1" vertex="1" parent="6PRzyqPz1Fcx_c-LDYBp-57">
          <mxGeometry x="589" width="310" height="30" as="geometry">
            <mxRectangle width="310" height="30" as="alternateBounds" />
          </mxGeometry>
        </mxCell>
        <mxCell id="6PRzyqPz1Fcx_c-LDYBp-62" value="" style="shape=tableRow;horizontal=0;startSize=0;swimlaneHead=0;swimlaneBody=0;strokeColor=inherit;top=0;left=0;bottom=0;right=0;collapsible=0;dropTarget=0;fillColor=none;points=[[0,0.5],[1,0.5]];portConstraint=eastwest;" vertex="1" parent="6PRzyqPz1Fcx_c-LDYBp-56">
          <mxGeometry y="30" width="898.9599999999991" height="30" as="geometry" />
        </mxCell>
        <mxCell id="6PRzyqPz1Fcx_c-LDYBp-63" value="&lt;b&gt;ATOMIC_INIT&lt;/b&gt;(int i)" style="shape=partialRectangle;html=1;whiteSpace=wrap;connectable=0;strokeColor=inherit;overflow=hidden;fillColor=none;top=0;left=0;bottom=0;right=0;pointerEvents=1;fontSize=16;align=center;" vertex="1" parent="6PRzyqPz1Fcx_c-LDYBp-62">
          <mxGeometry width="329" height="30" as="geometry">
            <mxRectangle width="329" height="30" as="alternateBounds" />
          </mxGeometry>
        </mxCell>
        <mxCell id="6PRzyqPz1Fcx_c-LDYBp-64" value="i：初始值" style="shape=partialRectangle;html=1;whiteSpace=wrap;connectable=0;strokeColor=inherit;overflow=hidden;fillColor=none;top=0;left=0;bottom=0;right=0;pointerEvents=1;fontSize=16;" vertex="1" parent="6PRzyqPz1Fcx_c-LDYBp-62">
          <mxGeometry x="329" width="120" height="30" as="geometry">
            <mxRectangle width="120" height="30" as="alternateBounds" />
          </mxGeometry>
        </mxCell>
        <mxCell id="6PRzyqPz1Fcx_c-LDYBp-65" value="初始化的atomic_t" style="shape=partialRectangle;html=1;whiteSpace=wrap;connectable=0;strokeColor=inherit;overflow=hidden;fillColor=none;top=0;left=0;bottom=0;right=0;pointerEvents=1;fontSize=16;" vertex="1" parent="6PRzyqPz1Fcx_c-LDYBp-62">
          <mxGeometry x="449" width="140" height="30" as="geometry">
            <mxRectangle width="140" height="30" as="alternateBounds" />
          </mxGeometry>
        </mxCell>
        <mxCell id="6PRzyqPz1Fcx_c-LDYBp-66" value="定义原子变量并初始化，赋值为i" style="shape=partialRectangle;html=1;whiteSpace=wrap;connectable=0;strokeColor=inherit;overflow=hidden;fillColor=none;top=0;left=0;bottom=0;right=0;pointerEvents=1;fontSize=16;" vertex="1" parent="6PRzyqPz1Fcx_c-LDYBp-62">
          <mxGeometry x="589" width="310" height="30" as="geometry">
            <mxRectangle width="310" height="30" as="alternateBounds" />
          </mxGeometry>
        </mxCell>
        <mxCell id="6PRzyqPz1Fcx_c-LDYBp-67" value="" style="shape=tableRow;horizontal=0;startSize=0;swimlaneHead=0;swimlaneBody=0;strokeColor=inherit;top=0;left=0;bottom=0;right=0;collapsible=0;dropTarget=0;fillColor=none;points=[[0,0.5],[1,0.5]];portConstraint=eastwest;" vertex="1" parent="6PRzyqPz1Fcx_c-LDYBp-56">
          <mxGeometry y="60" width="898.9599999999991" height="30" as="geometry" />
        </mxCell>
        <mxCell id="6PRzyqPz1Fcx_c-LDYBp-68" value="&lt;b&gt;atomic_read&lt;/b&gt;(atomic_t *v)" style="shape=partialRectangle;html=1;whiteSpace=wrap;connectable=0;strokeColor=inherit;overflow=hidden;fillColor=none;top=0;left=0;bottom=0;right=0;pointerEvents=1;fontSize=16;align=center;" vertex="1" parent="6PRzyqPz1Fcx_c-LDYBp-67">
          <mxGeometry width="329" height="30" as="geometry">
            <mxRectangle width="329" height="30" as="alternateBounds" />
          </mxGeometry>
        </mxCell>
        <mxCell id="6PRzyqPz1Fcx_c-LDYBp-69" value="v: 原子变量指针&amp;nbsp;" style="shape=partialRectangle;html=1;whiteSpace=wrap;connectable=0;strokeColor=inherit;overflow=hidden;fillColor=none;top=0;left=0;bottom=0;right=0;pointerEvents=1;fontSize=16;" vertex="1" parent="6PRzyqPz1Fcx_c-LDYBp-67">
          <mxGeometry x="329" width="120" height="30" as="geometry">
            <mxRectangle width="120" height="30" as="alternateBounds" />
          </mxGeometry>
        </mxCell>
        <mxCell id="6PRzyqPz1Fcx_c-LDYBp-70" value="原子变量的int值" style="shape=partialRectangle;html=1;whiteSpace=wrap;connectable=0;strokeColor=inherit;overflow=hidden;fillColor=none;top=0;left=0;bottom=0;right=0;pointerEvents=1;fontSize=16;" vertex="1" parent="6PRzyqPz1Fcx_c-LDYBp-67">
          <mxGeometry x="449" width="140" height="30" as="geometry">
            <mxRectangle width="140" height="30" as="alternateBounds" />
          </mxGeometry>
        </mxCell>
        <mxCell id="6PRzyqPz1Fcx_c-LDYBp-71" value="读取v的值，并且返回" style="shape=partialRectangle;html=1;whiteSpace=wrap;connectable=0;strokeColor=inherit;overflow=hidden;fillColor=none;top=0;left=0;bottom=0;right=0;pointerEvents=1;fontSize=16;" vertex="1" parent="6PRzyqPz1Fcx_c-LDYBp-67">
          <mxGeometry x="589" width="310" height="30" as="geometry">
            <mxRectangle width="310" height="30" as="alternateBounds" />
          </mxGeometry>
        </mxCell>
        <mxCell id="6PRzyqPz1Fcx_c-LDYBp-72" value="" style="shape=tableRow;horizontal=0;startSize=0;swimlaneHead=0;swimlaneBody=0;strokeColor=inherit;top=0;left=0;bottom=0;right=0;collapsible=0;dropTarget=0;fillColor=none;points=[[0,0.5],[1,0.5]];portConstraint=eastwest;" vertex="1" parent="6PRzyqPz1Fcx_c-LDYBp-56">
          <mxGeometry y="90" width="898.9599999999991" height="30" as="geometry" />
        </mxCell>
        <mxCell id="6PRzyqPz1Fcx_c-LDYBp-73" value="&lt;b&gt;atomic_set&lt;/b&gt;(atomic_t *v, int i)" style="shape=partialRectangle;html=1;whiteSpace=wrap;connectable=0;strokeColor=inherit;overflow=hidden;fillColor=none;top=0;left=0;bottom=0;right=0;pointerEvents=1;fontSize=16;align=center;" vertex="1" parent="6PRzyqPz1Fcx_c-LDYBp-72">
          <mxGeometry width="329" height="30" as="geometry">
            <mxRectangle width="329" height="30" as="alternateBounds" />
          </mxGeometry>
        </mxCell>
        <mxCell id="6PRzyqPz1Fcx_c-LDYBp-74" value="同上" style="shape=partialRectangle;html=1;whiteSpace=wrap;connectable=0;strokeColor=inherit;overflow=hidden;fillColor=none;top=0;left=0;bottom=0;right=0;pointerEvents=1;fontSize=16;" vertex="1" parent="6PRzyqPz1Fcx_c-LDYBp-72">
          <mxGeometry x="329" width="120" height="30" as="geometry">
            <mxRectangle width="120" height="30" as="alternateBounds" />
          </mxGeometry>
        </mxCell>
        <mxCell id="6PRzyqPz1Fcx_c-LDYBp-75" value="void" style="shape=partialRectangle;html=1;whiteSpace=wrap;connectable=0;strokeColor=inherit;overflow=hidden;fillColor=none;top=0;left=0;bottom=0;right=0;pointerEvents=1;fontSize=16;" vertex="1" parent="6PRzyqPz1Fcx_c-LDYBp-72">
          <mxGeometry x="449" width="140" height="30" as="geometry">
            <mxRectangle width="140" height="30" as="alternateBounds" />
          </mxGeometry>
        </mxCell>
        <mxCell id="6PRzyqPz1Fcx_c-LDYBp-76" value="设置原子变量 v 为 i 值" style="shape=partialRectangle;html=1;whiteSpace=wrap;connectable=0;strokeColor=inherit;overflow=hidden;fillColor=none;top=0;left=0;bottom=0;right=0;pointerEvents=1;fontSize=16;" vertex="1" parent="6PRzyqPz1Fcx_c-LDYBp-72">
          <mxGeometry x="589" width="310" height="30" as="geometry">
            <mxRectangle width="310" height="30" as="alternateBounds" />
          </mxGeometry>
        </mxCell>
        <mxCell id="6PRzyqPz1Fcx_c-LDYBp-77" value="" style="shape=tableRow;horizontal=0;startSize=0;swimlaneHead=0;swimlaneBody=0;strokeColor=inherit;top=0;left=0;bottom=0;right=0;collapsible=0;dropTarget=0;fillColor=none;points=[[0,0.5],[1,0.5]];portConstraint=eastwest;" vertex="1" parent="6PRzyqPz1Fcx_c-LDYBp-56">
          <mxGeometry y="120" width="898.9599999999991" height="30" as="geometry" />
        </mxCell>
        <mxCell id="6PRzyqPz1Fcx_c-LDYBp-78" value="&lt;b&gt;atomic_add&lt;/b&gt;(int i, atomic_t *v)" style="shape=partialRectangle;html=1;whiteSpace=wrap;connectable=0;strokeColor=inherit;overflow=hidden;fillColor=none;top=0;left=0;bottom=0;right=0;pointerEvents=1;fontSize=16;align=center;" vertex="1" parent="6PRzyqPz1Fcx_c-LDYBp-77">
          <mxGeometry width="329" height="30" as="geometry">
            <mxRectangle width="329" height="30" as="alternateBounds" />
          </mxGeometry>
        </mxCell>
        <mxCell id="6PRzyqPz1Fcx_c-LDYBp-79" value="下面都是同上" style="shape=partialRectangle;html=1;whiteSpace=wrap;connectable=0;strokeColor=inherit;overflow=hidden;fillColor=none;top=0;left=0;bottom=0;right=0;pointerEvents=1;fontSize=16;" vertex="1" parent="6PRzyqPz1Fcx_c-LDYBp-77">
          <mxGeometry x="329" width="120" height="30" as="geometry">
            <mxRectangle width="120" height="30" as="alternateBounds" />
          </mxGeometry>
        </mxCell>
        <mxCell id="6PRzyqPz1Fcx_c-LDYBp-80" value="void" style="shape=partialRectangle;html=1;whiteSpace=wrap;connectable=0;strokeColor=inherit;overflow=hidden;fillColor=none;top=0;left=0;bottom=0;right=0;pointerEvents=1;fontSize=16;" vertex="1" parent="6PRzyqPz1Fcx_c-LDYBp-77">
          <mxGeometry x="449" width="140" height="30" as="geometry">
            <mxRectangle width="140" height="30" as="alternateBounds" />
          </mxGeometry>
        </mxCell>
        <mxCell id="6PRzyqPz1Fcx_c-LDYBp-81" value="原子变量v加上i值" style="shape=partialRectangle;html=1;whiteSpace=wrap;connectable=0;strokeColor=inherit;overflow=hidden;fillColor=none;top=0;left=0;bottom=0;right=0;pointerEvents=1;fontSize=16;" vertex="1" parent="6PRzyqPz1Fcx_c-LDYBp-77">
          <mxGeometry x="589" width="310" height="30" as="geometry">
            <mxRectangle width="310" height="30" as="alternateBounds" />
          </mxGeometry>
        </mxCell>
        <mxCell id="6PRzyqPz1Fcx_c-LDYBp-82" value="" style="shape=tableRow;horizontal=0;startSize=0;swimlaneHead=0;swimlaneBody=0;strokeColor=inherit;top=0;left=0;bottom=0;right=0;collapsible=0;dropTarget=0;fillColor=none;points=[[0,0.5],[1,0.5]];portConstraint=eastwest;" vertex="1" parent="6PRzyqPz1Fcx_c-LDYBp-56">
          <mxGeometry y="150" width="898.9599999999991" height="30" as="geometry" />
        </mxCell>
        <mxCell id="6PRzyqPz1Fcx_c-LDYBp-83" value="&lt;b&gt;atomic_sub&lt;/b&gt;(int i, atomic_t *v)" style="shape=partialRectangle;html=1;whiteSpace=wrap;connectable=0;strokeColor=inherit;overflow=hidden;fillColor=none;top=0;left=0;bottom=0;right=0;pointerEvents=1;fontSize=16;align=center;" vertex="1" parent="6PRzyqPz1Fcx_c-LDYBp-82">
          <mxGeometry width="329" height="30" as="geometry">
            <mxRectangle width="329" height="30" as="alternateBounds" />
          </mxGeometry>
        </mxCell>
        <mxCell id="6PRzyqPz1Fcx_c-LDYBp-84" value="" style="shape=partialRectangle;html=1;whiteSpace=wrap;connectable=0;strokeColor=inherit;overflow=hidden;fillColor=none;top=0;left=0;bottom=0;right=0;pointerEvents=1;fontSize=16;" vertex="1" parent="6PRzyqPz1Fcx_c-LDYBp-82">
          <mxGeometry x="329" width="120" height="30" as="geometry">
            <mxRectangle width="120" height="30" as="alternateBounds" />
          </mxGeometry>
        </mxCell>
        <mxCell id="6PRzyqPz1Fcx_c-LDYBp-85" value="void" style="shape=partialRectangle;html=1;whiteSpace=wrap;connectable=0;strokeColor=inherit;overflow=hidden;fillColor=none;top=0;left=0;bottom=0;right=0;pointerEvents=1;fontSize=16;" vertex="1" parent="6PRzyqPz1Fcx_c-LDYBp-82">
          <mxGeometry x="449" width="140" height="30" as="geometry">
            <mxRectangle width="140" height="30" as="alternateBounds" />
          </mxGeometry>
        </mxCell>
        <mxCell id="6PRzyqPz1Fcx_c-LDYBp-86" value="原子变量v减去i值" style="shape=partialRectangle;html=1;whiteSpace=wrap;connectable=0;strokeColor=inherit;overflow=hidden;fillColor=none;top=0;left=0;bottom=0;right=0;pointerEvents=1;fontSize=16;" vertex="1" parent="6PRzyqPz1Fcx_c-LDYBp-82">
          <mxGeometry x="589" width="310" height="30" as="geometry">
            <mxRectangle width="310" height="30" as="alternateBounds" />
          </mxGeometry>
        </mxCell>
        <mxCell id="6PRzyqPz1Fcx_c-LDYBp-87" value="" style="shape=tableRow;horizontal=0;startSize=0;swimlaneHead=0;swimlaneBody=0;strokeColor=inherit;top=0;left=0;bottom=0;right=0;collapsible=0;dropTarget=0;fillColor=none;points=[[0,0.5],[1,0.5]];portConstraint=eastwest;" vertex="1" parent="6PRzyqPz1Fcx_c-LDYBp-56">
          <mxGeometry y="180" width="898.9599999999991" height="30" as="geometry" />
        </mxCell>
        <mxCell id="6PRzyqPz1Fcx_c-LDYBp-88" value="&lt;b&gt;atomic_inc&lt;/b&gt;(atomic_t *v)" style="shape=partialRectangle;html=1;whiteSpace=wrap;connectable=0;strokeColor=inherit;overflow=hidden;fillColor=none;top=0;left=0;bottom=0;right=0;pointerEvents=1;fontSize=16;align=center;" vertex="1" parent="6PRzyqPz1Fcx_c-LDYBp-87">
          <mxGeometry width="329" height="30" as="geometry">
            <mxRectangle width="329" height="30" as="alternateBounds" />
          </mxGeometry>
        </mxCell>
        <mxCell id="6PRzyqPz1Fcx_c-LDYBp-89" value="" style="shape=partialRectangle;html=1;whiteSpace=wrap;connectable=0;strokeColor=inherit;overflow=hidden;fillColor=none;top=0;left=0;bottom=0;right=0;pointerEvents=1;fontSize=16;" vertex="1" parent="6PRzyqPz1Fcx_c-LDYBp-87">
          <mxGeometry x="329" width="120" height="30" as="geometry">
            <mxRectangle width="120" height="30" as="alternateBounds" />
          </mxGeometry>
        </mxCell>
        <mxCell id="6PRzyqPz1Fcx_c-LDYBp-90" value="void" style="shape=partialRectangle;html=1;whiteSpace=wrap;connectable=0;strokeColor=inherit;overflow=hidden;fillColor=none;top=0;left=0;bottom=0;right=0;pointerEvents=1;fontSize=16;" vertex="1" parent="6PRzyqPz1Fcx_c-LDYBp-87">
          <mxGeometry x="449" width="140" height="30" as="geometry">
            <mxRectangle width="140" height="30" as="alternateBounds" />
          </mxGeometry>
        </mxCell>
        <mxCell id="6PRzyqPz1Fcx_c-LDYBp-91" value="原子变量v加1" style="shape=partialRectangle;html=1;whiteSpace=wrap;connectable=0;strokeColor=inherit;overflow=hidden;fillColor=none;top=0;left=0;bottom=0;right=0;pointerEvents=1;fontSize=16;" vertex="1" parent="6PRzyqPz1Fcx_c-LDYBp-87">
          <mxGeometry x="589" width="310" height="30" as="geometry">
            <mxRectangle width="310" height="30" as="alternateBounds" />
          </mxGeometry>
        </mxCell>
        <mxCell id="6PRzyqPz1Fcx_c-LDYBp-92" value="" style="shape=tableRow;horizontal=0;startSize=0;swimlaneHead=0;swimlaneBody=0;strokeColor=inherit;top=0;left=0;bottom=0;right=0;collapsible=0;dropTarget=0;fillColor=none;points=[[0,0.5],[1,0.5]];portConstraint=eastwest;" vertex="1" parent="6PRzyqPz1Fcx_c-LDYBp-56">
          <mxGeometry y="210" width="898.9599999999991" height="30" as="geometry" />
        </mxCell>
        <mxCell id="6PRzyqPz1Fcx_c-LDYBp-93" value="&lt;b&gt;atomic_dec&lt;/b&gt;(atomic_t *v)" style="shape=partialRectangle;html=1;whiteSpace=wrap;connectable=0;strokeColor=inherit;overflow=hidden;fillColor=none;top=0;left=0;bottom=0;right=0;pointerEvents=1;fontSize=16;align=center;" vertex="1" parent="6PRzyqPz1Fcx_c-LDYBp-92">
          <mxGeometry width="329" height="30" as="geometry">
            <mxRectangle width="329" height="30" as="alternateBounds" />
          </mxGeometry>
        </mxCell>
        <mxCell id="6PRzyqPz1Fcx_c-LDYBp-94" value="" style="shape=partialRectangle;html=1;whiteSpace=wrap;connectable=0;strokeColor=inherit;overflow=hidden;fillColor=none;top=0;left=0;bottom=0;right=0;pointerEvents=1;fontSize=16;" vertex="1" parent="6PRzyqPz1Fcx_c-LDYBp-92">
          <mxGeometry x="329" width="120" height="30" as="geometry">
            <mxRectangle width="120" height="30" as="alternateBounds" />
          </mxGeometry>
        </mxCell>
        <mxCell id="6PRzyqPz1Fcx_c-LDYBp-95" value="void" style="shape=partialRectangle;html=1;whiteSpace=wrap;connectable=0;strokeColor=inherit;overflow=hidden;fillColor=none;top=0;left=0;bottom=0;right=0;pointerEvents=1;fontSize=16;" vertex="1" parent="6PRzyqPz1Fcx_c-LDYBp-92">
          <mxGeometry x="449" width="140" height="30" as="geometry">
            <mxRectangle width="140" height="30" as="alternateBounds" />
          </mxGeometry>
        </mxCell>
        <mxCell id="6PRzyqPz1Fcx_c-LDYBp-96" value="原子变量v减1" style="shape=partialRectangle;html=1;whiteSpace=wrap;connectable=0;strokeColor=inherit;overflow=hidden;fillColor=none;top=0;left=0;bottom=0;right=0;pointerEvents=1;fontSize=16;" vertex="1" parent="6PRzyqPz1Fcx_c-LDYBp-92">
          <mxGeometry x="589" width="310" height="30" as="geometry">
            <mxRectangle width="310" height="30" as="alternateBounds" />
          </mxGeometry>
        </mxCell>
        <mxCell id="6PRzyqPz1Fcx_c-LDYBp-97" value="" style="shape=tableRow;horizontal=0;startSize=0;swimlaneHead=0;swimlaneBody=0;strokeColor=inherit;top=0;left=0;bottom=0;right=0;collapsible=0;dropTarget=0;fillColor=none;points=[[0,0.5],[1,0.5]];portConstraint=eastwest;" vertex="1" parent="6PRzyqPz1Fcx_c-LDYBp-56">
          <mxGeometry y="240" width="898.9599999999991" height="30" as="geometry" />
        </mxCell>
        <mxCell id="6PRzyqPz1Fcx_c-LDYBp-98" value="&lt;b&gt;atomic_dec_return&lt;/b&gt;(atomic_t *v)" style="shape=partialRectangle;html=1;whiteSpace=wrap;connectable=0;strokeColor=inherit;overflow=hidden;fillColor=none;top=0;left=0;bottom=0;right=0;pointerEvents=1;fontSize=16;align=center;" vertex="1" parent="6PRzyqPz1Fcx_c-LDYBp-97">
          <mxGeometry width="329" height="30" as="geometry">
            <mxRectangle width="329" height="30" as="alternateBounds" />
          </mxGeometry>
        </mxCell>
        <mxCell id="6PRzyqPz1Fcx_c-LDYBp-99" value="" style="shape=partialRectangle;html=1;whiteSpace=wrap;connectable=0;strokeColor=inherit;overflow=hidden;fillColor=none;top=0;left=0;bottom=0;right=0;pointerEvents=1;fontSize=16;" vertex="1" parent="6PRzyqPz1Fcx_c-LDYBp-97">
          <mxGeometry x="329" width="120" height="30" as="geometry">
            <mxRectangle width="120" height="30" as="alternateBounds" />
          </mxGeometry>
        </mxCell>
        <mxCell id="6PRzyqPz1Fcx_c-LDYBp-100" value="操作后的int值" style="shape=partialRectangle;html=1;whiteSpace=wrap;connectable=0;strokeColor=inherit;overflow=hidden;fillColor=none;top=0;left=0;bottom=0;right=0;pointerEvents=1;fontSize=16;" vertex="1" parent="6PRzyqPz1Fcx_c-LDYBp-97">
          <mxGeometry x="449" width="140" height="30" as="geometry">
            <mxRectangle width="140" height="30" as="alternateBounds" />
          </mxGeometry>
        </mxCell>
        <mxCell id="6PRzyqPz1Fcx_c-LDYBp-101" value="原子变量v减1，并返回v的值" style="shape=partialRectangle;html=1;whiteSpace=wrap;connectable=0;strokeColor=inherit;overflow=hidden;fillColor=none;top=0;left=0;bottom=0;right=0;pointerEvents=1;fontSize=16;" vertex="1" parent="6PRzyqPz1Fcx_c-LDYBp-97">
          <mxGeometry x="589" width="310" height="30" as="geometry">
            <mxRectangle width="310" height="30" as="alternateBounds" />
          </mxGeometry>
        </mxCell>
        <mxCell id="6PRzyqPz1Fcx_c-LDYBp-102" value="" style="shape=tableRow;horizontal=0;startSize=0;swimlaneHead=0;swimlaneBody=0;strokeColor=inherit;top=0;left=0;bottom=0;right=0;collapsible=0;dropTarget=0;fillColor=none;points=[[0,0.5],[1,0.5]];portConstraint=eastwest;" vertex="1" parent="6PRzyqPz1Fcx_c-LDYBp-56">
          <mxGeometry y="270" width="898.9599999999991" height="30" as="geometry" />
        </mxCell>
        <mxCell id="6PRzyqPz1Fcx_c-LDYBp-103" value="&lt;b&gt;atomic_inc_return&lt;/b&gt;(atomic_t *v)" style="shape=partialRectangle;html=1;whiteSpace=wrap;connectable=0;strokeColor=inherit;overflow=hidden;fillColor=none;top=0;left=0;bottom=0;right=0;pointerEvents=1;fontSize=16;align=center;" vertex="1" parent="6PRzyqPz1Fcx_c-LDYBp-102">
          <mxGeometry width="329" height="30" as="geometry">
            <mxRectangle width="329" height="30" as="alternateBounds" />
          </mxGeometry>
        </mxCell>
        <mxCell id="6PRzyqPz1Fcx_c-LDYBp-104" value="" style="shape=partialRectangle;html=1;whiteSpace=wrap;connectable=0;strokeColor=inherit;overflow=hidden;fillColor=none;top=0;left=0;bottom=0;right=0;pointerEvents=1;fontSize=16;" vertex="1" parent="6PRzyqPz1Fcx_c-LDYBp-102">
          <mxGeometry x="329" width="120" height="30" as="geometry">
            <mxRectangle width="120" height="30" as="alternateBounds" />
          </mxGeometry>
        </mxCell>
        <mxCell id="6PRzyqPz1Fcx_c-LDYBp-105" value="操作后的int值" style="shape=partialRectangle;html=1;whiteSpace=wrap;connectable=0;strokeColor=inherit;overflow=hidden;fillColor=none;top=0;left=0;bottom=0;right=0;pointerEvents=1;fontSize=16;" vertex="1" parent="6PRzyqPz1Fcx_c-LDYBp-102">
          <mxGeometry x="449" width="140" height="30" as="geometry">
            <mxRectangle width="140" height="30" as="alternateBounds" />
          </mxGeometry>
        </mxCell>
        <mxCell id="6PRzyqPz1Fcx_c-LDYBp-106" value="原子变量v加1，并返回v的值" style="shape=partialRectangle;html=1;whiteSpace=wrap;connectable=0;strokeColor=inherit;overflow=hidden;fillColor=none;top=0;left=0;bottom=0;right=0;pointerEvents=1;fontSize=16;" vertex="1" parent="6PRzyqPz1Fcx_c-LDYBp-102">
          <mxGeometry x="589" width="310" height="30" as="geometry">
            <mxRectangle width="310" height="30" as="alternateBounds" />
          </mxGeometry>
        </mxCell>
        <mxCell id="6PRzyqPz1Fcx_c-LDYBp-107" value="" style="shape=tableRow;horizontal=0;startSize=0;swimlaneHead=0;swimlaneBody=0;strokeColor=inherit;top=0;left=0;bottom=0;right=0;collapsible=0;dropTarget=0;fillColor=none;points=[[0,0.5],[1,0.5]];portConstraint=eastwest;" vertex="1" parent="6PRzyqPz1Fcx_c-LDYBp-56">
          <mxGeometry y="300" width="898.9599999999991" height="30" as="geometry" />
        </mxCell>
        <mxCell id="6PRzyqPz1Fcx_c-LDYBp-108" value="&lt;b&gt;atomic_sub_and_test&lt;/b&gt;(int i, atomic_t *v)" style="shape=partialRectangle;html=1;whiteSpace=wrap;connectable=0;strokeColor=inherit;overflow=hidden;fillColor=none;top=0;left=0;bottom=0;right=0;pointerEvents=1;fontSize=16;align=center;" vertex="1" parent="6PRzyqPz1Fcx_c-LDYBp-107">
          <mxGeometry width="329" height="30" as="geometry">
            <mxRectangle width="329" height="30" as="alternateBounds" />
          </mxGeometry>
        </mxCell>
        <mxCell id="6PRzyqPz1Fcx_c-LDYBp-109" value="" style="shape=partialRectangle;html=1;whiteSpace=wrap;connectable=0;strokeColor=inherit;overflow=hidden;fillColor=none;top=0;left=0;bottom=0;right=0;pointerEvents=1;fontSize=16;" vertex="1" parent="6PRzyqPz1Fcx_c-LDYBp-107">
          <mxGeometry x="329" width="120" height="30" as="geometry">
            <mxRectangle width="120" height="30" as="alternateBounds" />
          </mxGeometry>
        </mxCell>
        <mxCell id="6PRzyqPz1Fcx_c-LDYBp-110" value="int：0或非0" style="shape=partialRectangle;html=1;whiteSpace=wrap;connectable=0;strokeColor=inherit;overflow=hidden;fillColor=none;top=0;left=0;bottom=0;right=0;pointerEvents=1;fontSize=16;" vertex="1" parent="6PRzyqPz1Fcx_c-LDYBp-107">
          <mxGeometry x="449" width="140" height="30" as="geometry">
            <mxRectangle width="140" height="30" as="alternateBounds" />
          </mxGeometry>
        </mxCell>
        <mxCell id="6PRzyqPz1Fcx_c-LDYBp-111" value="原子变量v减i，结果为0为真，否则为假" style="shape=partialRectangle;html=1;whiteSpace=wrap;connectable=0;strokeColor=inherit;overflow=hidden;fillColor=none;top=0;left=0;bottom=0;right=0;pointerEvents=1;fontSize=16;" vertex="1" parent="6PRzyqPz1Fcx_c-LDYBp-107">
          <mxGeometry x="589" width="310" height="30" as="geometry">
            <mxRectangle width="310" height="30" as="alternateBounds" />
          </mxGeometry>
        </mxCell>
        <mxCell id="6PRzyqPz1Fcx_c-LDYBp-112" value="" style="shape=tableRow;horizontal=0;startSize=0;swimlaneHead=0;swimlaneBody=0;strokeColor=inherit;top=0;left=0;bottom=0;right=0;collapsible=0;dropTarget=0;fillColor=none;points=[[0,0.5],[1,0.5]];portConstraint=eastwest;" vertex="1" parent="6PRzyqPz1Fcx_c-LDYBp-56">
          <mxGeometry y="330" width="898.9599999999991" height="30" as="geometry" />
        </mxCell>
        <mxCell id="6PRzyqPz1Fcx_c-LDYBp-113" value="&lt;b&gt;atomic_dec_and_test&lt;/b&gt;(atomic_t *v)" style="shape=partialRectangle;html=1;whiteSpace=wrap;connectable=0;strokeColor=inherit;overflow=hidden;fillColor=none;top=0;left=0;bottom=0;right=0;pointerEvents=1;fontSize=16;align=center;" vertex="1" parent="6PRzyqPz1Fcx_c-LDYBp-112">
          <mxGeometry width="329" height="30" as="geometry">
            <mxRectangle width="329" height="30" as="alternateBounds" />
          </mxGeometry>
        </mxCell>
        <mxCell id="6PRzyqPz1Fcx_c-LDYBp-114" value="" style="shape=partialRectangle;html=1;whiteSpace=wrap;connectable=0;strokeColor=inherit;overflow=hidden;fillColor=none;top=0;left=0;bottom=0;right=0;pointerEvents=1;fontSize=16;" vertex="1" parent="6PRzyqPz1Fcx_c-LDYBp-112">
          <mxGeometry x="329" width="120" height="30" as="geometry">
            <mxRectangle width="120" height="30" as="alternateBounds" />
          </mxGeometry>
        </mxCell>
        <mxCell id="6PRzyqPz1Fcx_c-LDYBp-115" value="int：0或非0" style="shape=partialRectangle;html=1;whiteSpace=wrap;connectable=0;strokeColor=inherit;overflow=hidden;fillColor=none;top=0;left=0;bottom=0;right=0;pointerEvents=1;fontSize=16;" vertex="1" parent="6PRzyqPz1Fcx_c-LDYBp-112">
          <mxGeometry x="449" width="140" height="30" as="geometry">
            <mxRectangle width="140" height="30" as="alternateBounds" />
          </mxGeometry>
        </mxCell>
        <mxCell id="6PRzyqPz1Fcx_c-LDYBp-116" value="原子变量v减1，结果为0为真，否则为假" style="shape=partialRectangle;html=1;whiteSpace=wrap;connectable=0;strokeColor=inherit;overflow=hidden;fillColor=none;top=0;left=0;bottom=0;right=0;pointerEvents=1;fontSize=16;" vertex="1" parent="6PRzyqPz1Fcx_c-LDYBp-112">
          <mxGeometry x="589" width="310" height="30" as="geometry">
            <mxRectangle width="310" height="30" as="alternateBounds" />
          </mxGeometry>
        </mxCell>
        <mxCell id="6PRzyqPz1Fcx_c-LDYBp-117" value="" style="shape=tableRow;horizontal=0;startSize=0;swimlaneHead=0;swimlaneBody=0;strokeColor=inherit;top=0;left=0;bottom=0;right=0;collapsible=0;dropTarget=0;fillColor=none;points=[[0,0.5],[1,0.5]];portConstraint=eastwest;" vertex="1" parent="6PRzyqPz1Fcx_c-LDYBp-56">
          <mxGeometry y="360" width="898.9599999999991" height="30" as="geometry" />
        </mxCell>
        <mxCell id="6PRzyqPz1Fcx_c-LDYBp-118" value="&lt;b&gt;atomic_inc_and_test&lt;/b&gt;(atomic_t *v)" style="shape=partialRectangle;html=1;whiteSpace=wrap;connectable=0;strokeColor=inherit;overflow=hidden;fillColor=none;top=0;left=0;bottom=0;right=0;pointerEvents=1;fontSize=16;align=center;" vertex="1" parent="6PRzyqPz1Fcx_c-LDYBp-117">
          <mxGeometry width="329" height="30" as="geometry">
            <mxRectangle width="329" height="30" as="alternateBounds" />
          </mxGeometry>
        </mxCell>
        <mxCell id="6PRzyqPz1Fcx_c-LDYBp-119" value="" style="shape=partialRectangle;html=1;whiteSpace=wrap;connectable=0;strokeColor=inherit;overflow=hidden;fillColor=none;top=0;left=0;bottom=0;right=0;pointerEvents=1;fontSize=16;" vertex="1" parent="6PRzyqPz1Fcx_c-LDYBp-117">
          <mxGeometry x="329" width="120" height="30" as="geometry">
            <mxRectangle width="120" height="30" as="alternateBounds" />
          </mxGeometry>
        </mxCell>
        <mxCell id="6PRzyqPz1Fcx_c-LDYBp-120" value="int：0或非0" style="shape=partialRectangle;html=1;whiteSpace=wrap;connectable=0;strokeColor=inherit;overflow=hidden;fillColor=none;top=0;left=0;bottom=0;right=0;pointerEvents=1;fontSize=16;" vertex="1" parent="6PRzyqPz1Fcx_c-LDYBp-117">
          <mxGeometry x="449" width="140" height="30" as="geometry">
            <mxRectangle width="140" height="30" as="alternateBounds" />
          </mxGeometry>
        </mxCell>
        <mxCell id="6PRzyqPz1Fcx_c-LDYBp-121" value="原子变量v加1，结果为0为真，否则为假" style="shape=partialRectangle;html=1;whiteSpace=wrap;connectable=0;strokeColor=inherit;overflow=hidden;fillColor=none;top=0;left=0;bottom=0;right=0;pointerEvents=1;fontSize=16;" vertex="1" parent="6PRzyqPz1Fcx_c-LDYBp-117">
          <mxGeometry x="589" width="310" height="30" as="geometry">
            <mxRectangle width="310" height="30" as="alternateBounds" />
          </mxGeometry>
        </mxCell>
        <mxCell id="6PRzyqPz1Fcx_c-LDYBp-122" value="" style="shape=tableRow;horizontal=0;startSize=0;swimlaneHead=0;swimlaneBody=0;strokeColor=inherit;top=0;left=0;bottom=0;right=0;collapsible=0;dropTarget=0;fillColor=none;points=[[0,0.5],[1,0.5]];portConstraint=eastwest;" vertex="1" parent="6PRzyqPz1Fcx_c-LDYBp-56">
          <mxGeometry y="390" width="898.9599999999991" height="30" as="geometry" />
        </mxCell>
        <mxCell id="6PRzyqPz1Fcx_c-LDYBp-123" value="&lt;b&gt;atomic_add_negative&lt;/b&gt;(int i, atomic_t *v)" style="shape=partialRectangle;html=1;whiteSpace=wrap;connectable=0;strokeColor=inherit;overflow=hidden;fillColor=none;top=0;left=0;bottom=0;right=0;pointerEvents=1;fontSize=16;align=center;" vertex="1" parent="6PRzyqPz1Fcx_c-LDYBp-122">
          <mxGeometry width="329" height="30" as="geometry">
            <mxRectangle width="329" height="30" as="alternateBounds" />
          </mxGeometry>
        </mxCell>
        <mxCell id="6PRzyqPz1Fcx_c-LDYBp-124" value="" style="shape=partialRectangle;html=1;whiteSpace=wrap;connectable=0;strokeColor=inherit;overflow=hidden;fillColor=none;top=0;left=0;bottom=0;right=0;pointerEvents=1;fontSize=16;" vertex="1" parent="6PRzyqPz1Fcx_c-LDYBp-122">
          <mxGeometry x="329" width="120" height="30" as="geometry">
            <mxRectangle width="120" height="30" as="alternateBounds" />
          </mxGeometry>
        </mxCell>
        <mxCell id="6PRzyqPz1Fcx_c-LDYBp-125" value="int：0或非0" style="shape=partialRectangle;html=1;whiteSpace=wrap;connectable=0;strokeColor=inherit;overflow=hidden;fillColor=none;top=0;left=0;bottom=0;right=0;pointerEvents=1;fontSize=16;" vertex="1" parent="6PRzyqPz1Fcx_c-LDYBp-122">
          <mxGeometry x="449" width="140" height="30" as="geometry">
            <mxRectangle width="140" height="30" as="alternateBounds" />
          </mxGeometry>
        </mxCell>
        <mxCell id="6PRzyqPz1Fcx_c-LDYBp-126" value="原子变量v加i，结果为0为真，否则为假" style="shape=partialRectangle;html=1;whiteSpace=wrap;connectable=0;strokeColor=inherit;overflow=hidden;fillColor=none;top=0;left=0;bottom=0;right=0;pointerEvents=1;fontSize=16;" vertex="1" parent="6PRzyqPz1Fcx_c-LDYBp-122">
          <mxGeometry x="589" width="310" height="30" as="geometry">
            <mxRectangle width="310" height="30" as="alternateBounds" />
          </mxGeometry>
        </mxCell>
        <mxCell id="6PRzyqPz1Fcx_c-LDYBp-143" value="&lt;span style=&quot;font-size: 16px;&quot;&gt;定义在&amp;nbsp;&lt;b&gt;include/linux/atomic.h&amp;nbsp;&lt;/b&gt;文件&lt;/span&gt;" style="text;html=1;align=left;verticalAlign=middle;whiteSpace=wrap;rounded=0;fillColor=#f8cecc;strokeColor=#b85450;dashed=1;fontSize=14;" vertex="1" parent="1">
          <mxGeometry x="408.49" y="365" width="618.34" height="36" as="geometry" />
        </mxCell>
        <mxCell id="6PRzyqPz1Fcx_c-LDYBp-144" value="&lt;h2&gt;5、bit位API&lt;/h2&gt;" style="rounded=1;whiteSpace=wrap;html=1;fillColor=#f8cecc;strokeColor=#b85450;fontStyle=1;align=left;" vertex="1" parent="1">
          <mxGeometry x="234.8499999999998" y="985" width="147.33" height="40" as="geometry" />
        </mxCell>
        <mxCell id="6PRzyqPz1Fcx_c-LDYBp-145" value="" style="shape=curlyBracket;whiteSpace=wrap;html=1;rounded=1;labelPosition=left;verticalLabelPosition=middle;align=right;verticalAlign=middle;fillColor=#f8cecc;strokeColor=#b85450;strokeWidth=2;" vertex="1" parent="1">
          <mxGeometry x="380" y="885" width="29" height="240" as="geometry" />
        </mxCell>
        <mxCell id="6PRzyqPz1Fcx_c-LDYBp-146" value="" style="shape=table;startSize=0;container=1;collapsible=0;childLayout=tableLayout;fillColor=none;strokeColor=#b85450;" vertex="1" parent="1">
          <mxGeometry x="408.84000000000003" y="905" width="898.9599999999991" height="240.00000000000045" as="geometry" />
        </mxCell>
        <mxCell id="6PRzyqPz1Fcx_c-LDYBp-147" value="" style="shape=tableRow;horizontal=0;startSize=0;swimlaneHead=0;swimlaneBody=0;strokeColor=#b85450;top=0;left=0;bottom=0;right=0;collapsible=0;dropTarget=0;fillColor=#f8cecc;points=[[0,0.5],[1,0.5]];portConstraint=eastwest;" vertex="1" parent="6PRzyqPz1Fcx_c-LDYBp-146">
          <mxGeometry width="898.9599999999991" height="30" as="geometry" />
        </mxCell>
        <mxCell id="6PRzyqPz1Fcx_c-LDYBp-148" value="函数" style="shape=partialRectangle;html=1;whiteSpace=wrap;connectable=0;strokeColor=#b85450;overflow=hidden;fillColor=#f8cecc;top=0;left=0;bottom=0;right=0;pointerEvents=1;fontSize=16;fontStyle=1" vertex="1" parent="6PRzyqPz1Fcx_c-LDYBp-147">
          <mxGeometry width="329" height="30" as="geometry">
            <mxRectangle width="329" height="30" as="alternateBounds" />
          </mxGeometry>
        </mxCell>
        <mxCell id="6PRzyqPz1Fcx_c-LDYBp-149" value="参数" style="shape=partialRectangle;html=1;whiteSpace=wrap;connectable=0;strokeColor=#b85450;overflow=hidden;fillColor=#f8cecc;top=0;left=0;bottom=0;right=0;pointerEvents=1;fontSize=16;fontStyle=1" vertex="1" parent="6PRzyqPz1Fcx_c-LDYBp-147">
          <mxGeometry x="329" width="120" height="30" as="geometry">
            <mxRectangle width="120" height="30" as="alternateBounds" />
          </mxGeometry>
        </mxCell>
        <mxCell id="6PRzyqPz1Fcx_c-LDYBp-150" value="返回值" style="shape=partialRectangle;html=1;whiteSpace=wrap;connectable=0;strokeColor=#b85450;overflow=hidden;fillColor=#f8cecc;top=0;left=0;bottom=0;right=0;pointerEvents=1;fontSize=16;fontStyle=1" vertex="1" parent="6PRzyqPz1Fcx_c-LDYBp-147">
          <mxGeometry x="449" width="140" height="30" as="geometry">
            <mxRectangle width="140" height="30" as="alternateBounds" />
          </mxGeometry>
        </mxCell>
        <mxCell id="6PRzyqPz1Fcx_c-LDYBp-151" value="描述" style="shape=partialRectangle;html=1;whiteSpace=wrap;connectable=0;strokeColor=#000000;overflow=hidden;fillColor=#f8cecc;top=0;left=0;bottom=0;right=0;pointerEvents=1;fontSize=16;fontStyle=1" vertex="1" parent="6PRzyqPz1Fcx_c-LDYBp-147">
          <mxGeometry x="589" width="310" height="30" as="geometry">
            <mxRectangle width="310" height="30" as="alternateBounds" />
          </mxGeometry>
        </mxCell>
        <mxCell id="6PRzyqPz1Fcx_c-LDYBp-152" value="" style="shape=tableRow;horizontal=0;startSize=0;swimlaneHead=0;swimlaneBody=0;strokeColor=inherit;top=0;left=0;bottom=0;right=0;collapsible=0;dropTarget=0;fillColor=none;points=[[0,0.5],[1,0.5]];portConstraint=eastwest;" vertex="1" parent="6PRzyqPz1Fcx_c-LDYBp-146">
          <mxGeometry y="30" width="898.9599999999991" height="30" as="geometry" />
        </mxCell>
        <mxCell id="6PRzyqPz1Fcx_c-LDYBp-153" value="&lt;b&gt;set_bit&lt;/b&gt;(int nr, void *p)" style="shape=partialRectangle;html=1;whiteSpace=wrap;connectable=0;strokeColor=inherit;overflow=hidden;fillColor=none;top=0;left=0;bottom=0;right=0;pointerEvents=1;fontSize=16;align=center;" vertex="1" parent="6PRzyqPz1Fcx_c-LDYBp-152">
          <mxGeometry width="329" height="30" as="geometry">
            <mxRectangle width="329" height="30" as="alternateBounds" />
          </mxGeometry>
        </mxCell>
        <mxCell id="6PRzyqPz1Fcx_c-LDYBp-154" value="nr：位置编号" style="shape=partialRectangle;html=1;whiteSpace=wrap;connectable=0;strokeColor=inherit;overflow=hidden;fillColor=none;top=0;left=0;bottom=0;right=0;pointerEvents=1;fontSize=16;" vertex="1" parent="6PRzyqPz1Fcx_c-LDYBp-152">
          <mxGeometry x="329" width="120" height="30" as="geometry">
            <mxRectangle width="120" height="30" as="alternateBounds" />
          </mxGeometry>
        </mxCell>
        <mxCell id="6PRzyqPz1Fcx_c-LDYBp-155" value="void" style="shape=partialRectangle;html=1;whiteSpace=wrap;connectable=0;strokeColor=inherit;overflow=hidden;fillColor=none;top=0;left=0;bottom=0;right=0;pointerEvents=1;fontSize=16;" vertex="1" parent="6PRzyqPz1Fcx_c-LDYBp-152">
          <mxGeometry x="449" width="140" height="30" as="geometry">
            <mxRectangle width="140" height="30" as="alternateBounds" />
          </mxGeometry>
        </mxCell>
        <mxCell id="6PRzyqPz1Fcx_c-LDYBp-156" value="将p地址的第nr位置1" style="shape=partialRectangle;html=1;whiteSpace=wrap;connectable=0;strokeColor=inherit;overflow=hidden;fillColor=none;top=0;left=0;bottom=0;right=0;pointerEvents=1;fontSize=16;" vertex="1" parent="6PRzyqPz1Fcx_c-LDYBp-152">
          <mxGeometry x="589" width="310" height="30" as="geometry">
            <mxRectangle width="310" height="30" as="alternateBounds" />
          </mxGeometry>
        </mxCell>
        <mxCell id="6PRzyqPz1Fcx_c-LDYBp-157" value="" style="shape=tableRow;horizontal=0;startSize=0;swimlaneHead=0;swimlaneBody=0;strokeColor=inherit;top=0;left=0;bottom=0;right=0;collapsible=0;dropTarget=0;fillColor=none;points=[[0,0.5],[1,0.5]];portConstraint=eastwest;" vertex="1" parent="6PRzyqPz1Fcx_c-LDYBp-146">
          <mxGeometry y="60" width="898.9599999999991" height="30" as="geometry" />
        </mxCell>
        <mxCell id="6PRzyqPz1Fcx_c-LDYBp-158" value="&lt;b&gt;clear_bit&lt;/b&gt;(int nr, void *p)" style="shape=partialRectangle;html=1;whiteSpace=wrap;connectable=0;strokeColor=inherit;overflow=hidden;fillColor=none;top=0;left=0;bottom=0;right=0;pointerEvents=1;fontSize=16;align=center;" vertex="1" parent="6PRzyqPz1Fcx_c-LDYBp-157">
          <mxGeometry width="329" height="30" as="geometry">
            <mxRectangle width="329" height="30" as="alternateBounds" />
          </mxGeometry>
        </mxCell>
        <mxCell id="6PRzyqPz1Fcx_c-LDYBp-159" value="p：内存地址" style="shape=partialRectangle;html=1;whiteSpace=wrap;connectable=0;strokeColor=inherit;overflow=hidden;fillColor=none;top=0;left=0;bottom=0;right=0;pointerEvents=1;fontSize=16;" vertex="1" parent="6PRzyqPz1Fcx_c-LDYBp-157">
          <mxGeometry x="329" width="120" height="30" as="geometry">
            <mxRectangle width="120" height="30" as="alternateBounds" />
          </mxGeometry>
        </mxCell>
        <mxCell id="6PRzyqPz1Fcx_c-LDYBp-160" value="void" style="shape=partialRectangle;html=1;whiteSpace=wrap;connectable=0;strokeColor=inherit;overflow=hidden;fillColor=none;top=0;left=0;bottom=0;right=0;pointerEvents=1;fontSize=16;" vertex="1" parent="6PRzyqPz1Fcx_c-LDYBp-157">
          <mxGeometry x="449" width="140" height="30" as="geometry">
            <mxRectangle width="140" height="30" as="alternateBounds" />
          </mxGeometry>
        </mxCell>
        <mxCell id="6PRzyqPz1Fcx_c-LDYBp-161" value="将p地址的第nr位清零" style="shape=partialRectangle;html=1;whiteSpace=wrap;connectable=0;strokeColor=inherit;overflow=hidden;fillColor=none;top=0;left=0;bottom=0;right=0;pointerEvents=1;fontSize=16;" vertex="1" parent="6PRzyqPz1Fcx_c-LDYBp-157">
          <mxGeometry x="589" width="310" height="30" as="geometry">
            <mxRectangle width="310" height="30" as="alternateBounds" />
          </mxGeometry>
        </mxCell>
        <mxCell id="6PRzyqPz1Fcx_c-LDYBp-162" value="" style="shape=tableRow;horizontal=0;startSize=0;swimlaneHead=0;swimlaneBody=0;strokeColor=inherit;top=0;left=0;bottom=0;right=0;collapsible=0;dropTarget=0;fillColor=none;points=[[0,0.5],[1,0.5]];portConstraint=eastwest;" vertex="1" parent="6PRzyqPz1Fcx_c-LDYBp-146">
          <mxGeometry y="90" width="898.9599999999991" height="30" as="geometry" />
        </mxCell>
        <mxCell id="6PRzyqPz1Fcx_c-LDYBp-163" value="&lt;b&gt;change_bit&lt;/b&gt;(int nr, void *p)" style="shape=partialRectangle;html=1;whiteSpace=wrap;connectable=0;strokeColor=inherit;overflow=hidden;fillColor=none;top=0;left=0;bottom=0;right=0;pointerEvents=1;fontSize=16;align=center;" vertex="1" parent="6PRzyqPz1Fcx_c-LDYBp-162">
          <mxGeometry width="329" height="30" as="geometry">
            <mxRectangle width="329" height="30" as="alternateBounds" />
          </mxGeometry>
        </mxCell>
        <mxCell id="6PRzyqPz1Fcx_c-LDYBp-164" value="同上" style="shape=partialRectangle;html=1;whiteSpace=wrap;connectable=0;strokeColor=inherit;overflow=hidden;fillColor=none;top=0;left=0;bottom=0;right=0;pointerEvents=1;fontSize=16;" vertex="1" parent="6PRzyqPz1Fcx_c-LDYBp-162">
          <mxGeometry x="329" width="120" height="30" as="geometry">
            <mxRectangle width="120" height="30" as="alternateBounds" />
          </mxGeometry>
        </mxCell>
        <mxCell id="6PRzyqPz1Fcx_c-LDYBp-165" value="void" style="shape=partialRectangle;html=1;whiteSpace=wrap;connectable=0;strokeColor=inherit;overflow=hidden;fillColor=none;top=0;left=0;bottom=0;right=0;pointerEvents=1;fontSize=16;" vertex="1" parent="6PRzyqPz1Fcx_c-LDYBp-162">
          <mxGeometry x="449" width="140" height="30" as="geometry">
            <mxRectangle width="140" height="30" as="alternateBounds" />
          </mxGeometry>
        </mxCell>
        <mxCell id="6PRzyqPz1Fcx_c-LDYBp-166" value="将p地址的第nr位进行翻转" style="shape=partialRectangle;html=1;whiteSpace=wrap;connectable=0;strokeColor=inherit;overflow=hidden;fillColor=none;top=0;left=0;bottom=0;right=0;pointerEvents=1;fontSize=16;" vertex="1" parent="6PRzyqPz1Fcx_c-LDYBp-162">
          <mxGeometry x="589" width="310" height="30" as="geometry">
            <mxRectangle width="310" height="30" as="alternateBounds" />
          </mxGeometry>
        </mxCell>
        <mxCell id="6PRzyqPz1Fcx_c-LDYBp-167" value="" style="shape=tableRow;horizontal=0;startSize=0;swimlaneHead=0;swimlaneBody=0;strokeColor=inherit;top=0;left=0;bottom=0;right=0;collapsible=0;dropTarget=0;fillColor=none;points=[[0,0.5],[1,0.5]];portConstraint=eastwest;" vertex="1" parent="6PRzyqPz1Fcx_c-LDYBp-146">
          <mxGeometry y="120" width="898.9599999999991" height="30" as="geometry" />
        </mxCell>
        <mxCell id="6PRzyqPz1Fcx_c-LDYBp-168" value="&lt;b&gt;test_bit&lt;/b&gt;(int nr, void *p)" style="shape=partialRectangle;html=1;whiteSpace=wrap;connectable=0;strokeColor=inherit;overflow=hidden;fillColor=none;top=0;left=0;bottom=0;right=0;pointerEvents=1;fontSize=16;align=center;" vertex="1" parent="6PRzyqPz1Fcx_c-LDYBp-167">
          <mxGeometry width="329" height="30" as="geometry">
            <mxRectangle width="329" height="30" as="alternateBounds" />
          </mxGeometry>
        </mxCell>
        <mxCell id="6PRzyqPz1Fcx_c-LDYBp-169" value="下面都是同上" style="shape=partialRectangle;html=1;whiteSpace=wrap;connectable=0;strokeColor=inherit;overflow=hidden;fillColor=none;top=0;left=0;bottom=0;right=0;pointerEvents=1;fontSize=16;" vertex="1" parent="6PRzyqPz1Fcx_c-LDYBp-167">
          <mxGeometry x="329" width="120" height="30" as="geometry">
            <mxRectangle width="120" height="30" as="alternateBounds" />
          </mxGeometry>
        </mxCell>
        <mxCell id="6PRzyqPz1Fcx_c-LDYBp-170" value="int：0或1" style="shape=partialRectangle;html=1;whiteSpace=wrap;connectable=0;strokeColor=inherit;overflow=hidden;fillColor=none;top=0;left=0;bottom=0;right=0;pointerEvents=1;fontSize=16;" vertex="1" parent="6PRzyqPz1Fcx_c-LDYBp-167">
          <mxGeometry x="449" width="140" height="30" as="geometry">
            <mxRectangle width="140" height="30" as="alternateBounds" />
          </mxGeometry>
        </mxCell>
        <mxCell id="6PRzyqPz1Fcx_c-LDYBp-171" value="获取p地址的第nr位的值" style="shape=partialRectangle;html=1;whiteSpace=wrap;connectable=0;strokeColor=inherit;overflow=hidden;fillColor=none;top=0;left=0;bottom=0;right=0;pointerEvents=1;fontSize=16;" vertex="1" parent="6PRzyqPz1Fcx_c-LDYBp-167">
          <mxGeometry x="589" width="310" height="30" as="geometry">
            <mxRectangle width="310" height="30" as="alternateBounds" />
          </mxGeometry>
        </mxCell>
        <mxCell id="6PRzyqPz1Fcx_c-LDYBp-172" value="" style="shape=tableRow;horizontal=0;startSize=0;swimlaneHead=0;swimlaneBody=0;strokeColor=inherit;top=0;left=0;bottom=0;right=0;collapsible=0;dropTarget=0;fillColor=none;points=[[0,0.5],[1,0.5]];portConstraint=eastwest;" vertex="1" parent="6PRzyqPz1Fcx_c-LDYBp-146">
          <mxGeometry y="150" width="898.9599999999991" height="30" as="geometry" />
        </mxCell>
        <mxCell id="6PRzyqPz1Fcx_c-LDYBp-173" value="&lt;b&gt;test_and_set_bit&lt;/b&gt;(int nr, void *p)" style="shape=partialRectangle;html=1;whiteSpace=wrap;connectable=0;strokeColor=inherit;overflow=hidden;fillColor=none;top=0;left=0;bottom=0;right=0;pointerEvents=1;fontSize=16;align=center;" vertex="1" parent="6PRzyqPz1Fcx_c-LDYBp-172">
          <mxGeometry width="329" height="30" as="geometry">
            <mxRectangle width="329" height="30" as="alternateBounds" />
          </mxGeometry>
        </mxCell>
        <mxCell id="6PRzyqPz1Fcx_c-LDYBp-174" value="" style="shape=partialRectangle;html=1;whiteSpace=wrap;connectable=0;strokeColor=inherit;overflow=hidden;fillColor=none;top=0;left=0;bottom=0;right=0;pointerEvents=1;fontSize=16;" vertex="1" parent="6PRzyqPz1Fcx_c-LDYBp-172">
          <mxGeometry x="329" width="120" height="30" as="geometry">
            <mxRectangle width="120" height="30" as="alternateBounds" />
          </mxGeometry>
        </mxCell>
        <mxCell id="6PRzyqPz1Fcx_c-LDYBp-175" value="int：原始值" style="shape=partialRectangle;html=1;whiteSpace=wrap;connectable=0;strokeColor=inherit;overflow=hidden;fillColor=none;top=0;left=0;bottom=0;right=0;pointerEvents=1;fontSize=16;" vertex="1" parent="6PRzyqPz1Fcx_c-LDYBp-172">
          <mxGeometry x="449" width="140" height="30" as="geometry">
            <mxRectangle width="140" height="30" as="alternateBounds" />
          </mxGeometry>
        </mxCell>
        <mxCell id="6PRzyqPz1Fcx_c-LDYBp-176" value="第nr位 置1，返回nr位原来的值" style="shape=partialRectangle;html=1;whiteSpace=wrap;connectable=0;strokeColor=inherit;overflow=hidden;fillColor=none;top=0;left=0;bottom=0;right=0;pointerEvents=1;fontSize=16;" vertex="1" parent="6PRzyqPz1Fcx_c-LDYBp-172">
          <mxGeometry x="589" width="310" height="30" as="geometry">
            <mxRectangle width="310" height="30" as="alternateBounds" />
          </mxGeometry>
        </mxCell>
        <mxCell id="6PRzyqPz1Fcx_c-LDYBp-177" value="" style="shape=tableRow;horizontal=0;startSize=0;swimlaneHead=0;swimlaneBody=0;strokeColor=inherit;top=0;left=0;bottom=0;right=0;collapsible=0;dropTarget=0;fillColor=none;points=[[0,0.5],[1,0.5]];portConstraint=eastwest;" vertex="1" parent="6PRzyqPz1Fcx_c-LDYBp-146">
          <mxGeometry y="180" width="898.9599999999991" height="30" as="geometry" />
        </mxCell>
        <mxCell id="6PRzyqPz1Fcx_c-LDYBp-178" value="&lt;b&gt;test_and_clear_bit&lt;/b&gt;(int nr, void *p)" style="shape=partialRectangle;html=1;whiteSpace=wrap;connectable=0;strokeColor=inherit;overflow=hidden;fillColor=none;top=0;left=0;bottom=0;right=0;pointerEvents=1;fontSize=16;align=center;" vertex="1" parent="6PRzyqPz1Fcx_c-LDYBp-177">
          <mxGeometry width="329" height="30" as="geometry">
            <mxRectangle width="329" height="30" as="alternateBounds" />
          </mxGeometry>
        </mxCell>
        <mxCell id="6PRzyqPz1Fcx_c-LDYBp-179" value="" style="shape=partialRectangle;html=1;whiteSpace=wrap;connectable=0;strokeColor=inherit;overflow=hidden;fillColor=none;top=0;left=0;bottom=0;right=0;pointerEvents=1;fontSize=16;" vertex="1" parent="6PRzyqPz1Fcx_c-LDYBp-177">
          <mxGeometry x="329" width="120" height="30" as="geometry">
            <mxRectangle width="120" height="30" as="alternateBounds" />
          </mxGeometry>
        </mxCell>
        <mxCell id="6PRzyqPz1Fcx_c-LDYBp-180" value="int：原始值" style="shape=partialRectangle;html=1;whiteSpace=wrap;connectable=0;strokeColor=inherit;overflow=hidden;fillColor=none;top=0;left=0;bottom=0;right=0;pointerEvents=1;fontSize=16;" vertex="1" parent="6PRzyqPz1Fcx_c-LDYBp-177">
          <mxGeometry x="449" width="140" height="30" as="geometry">
            <mxRectangle width="140" height="30" as="alternateBounds" />
          </mxGeometry>
        </mxCell>
        <mxCell id="6PRzyqPz1Fcx_c-LDYBp-181" value="第nr位 清零，返回nr位原来的值" style="shape=partialRectangle;html=1;whiteSpace=wrap;connectable=0;strokeColor=inherit;overflow=hidden;fillColor=none;top=0;left=0;bottom=0;right=0;pointerEvents=1;fontSize=16;" vertex="1" parent="6PRzyqPz1Fcx_c-LDYBp-177">
          <mxGeometry x="589" width="310" height="30" as="geometry">
            <mxRectangle width="310" height="30" as="alternateBounds" />
          </mxGeometry>
        </mxCell>
        <mxCell id="6PRzyqPz1Fcx_c-LDYBp-182" value="" style="shape=tableRow;horizontal=0;startSize=0;swimlaneHead=0;swimlaneBody=0;strokeColor=inherit;top=0;left=0;bottom=0;right=0;collapsible=0;dropTarget=0;fillColor=none;points=[[0,0.5],[1,0.5]];portConstraint=eastwest;" vertex="1" parent="6PRzyqPz1Fcx_c-LDYBp-146">
          <mxGeometry y="210" width="898.9599999999991" height="30" as="geometry" />
        </mxCell>
        <mxCell id="6PRzyqPz1Fcx_c-LDYBp-183" value="&lt;b&gt;test_and_change_bit&lt;/b&gt;(int nr, void *p)" style="shape=partialRectangle;html=1;whiteSpace=wrap;connectable=0;strokeColor=inherit;overflow=hidden;fillColor=none;top=0;left=0;bottom=0;right=0;pointerEvents=1;fontSize=16;align=center;" vertex="1" parent="6PRzyqPz1Fcx_c-LDYBp-182">
          <mxGeometry width="329" height="30" as="geometry">
            <mxRectangle width="329" height="30" as="alternateBounds" />
          </mxGeometry>
        </mxCell>
        <mxCell id="6PRzyqPz1Fcx_c-LDYBp-184" value="" style="shape=partialRectangle;html=1;whiteSpace=wrap;connectable=0;strokeColor=inherit;overflow=hidden;fillColor=none;top=0;left=0;bottom=0;right=0;pointerEvents=1;fontSize=16;" vertex="1" parent="6PRzyqPz1Fcx_c-LDYBp-182">
          <mxGeometry x="329" width="120" height="30" as="geometry">
            <mxRectangle width="120" height="30" as="alternateBounds" />
          </mxGeometry>
        </mxCell>
        <mxCell id="6PRzyqPz1Fcx_c-LDYBp-185" value="int：原始值" style="shape=partialRectangle;html=1;whiteSpace=wrap;connectable=0;strokeColor=inherit;overflow=hidden;fillColor=none;top=0;left=0;bottom=0;right=0;pointerEvents=1;fontSize=16;" vertex="1" parent="6PRzyqPz1Fcx_c-LDYBp-182">
          <mxGeometry x="449" width="140" height="30" as="geometry">
            <mxRectangle width="140" height="30" as="alternateBounds" />
          </mxGeometry>
        </mxCell>
        <mxCell id="6PRzyqPz1Fcx_c-LDYBp-186" value="第nr位 翻转，返回nr位原来的值" style="shape=partialRectangle;html=1;whiteSpace=wrap;connectable=0;strokeColor=inherit;overflow=hidden;fillColor=none;top=0;left=0;bottom=0;right=0;pointerEvents=1;fontSize=16;" vertex="1" parent="6PRzyqPz1Fcx_c-LDYBp-182">
          <mxGeometry x="589" width="310" height="30" as="geometry">
            <mxRectangle width="310" height="30" as="alternateBounds" />
          </mxGeometry>
        </mxCell>
        <mxCell id="6PRzyqPz1Fcx_c-LDYBp-217" value="&lt;span style=&quot;font-size: 16px;&quot;&gt;位原子操作没有特殊的数据结构，&lt;b&gt;直接对内存进行操作&lt;/b&gt;&lt;/span&gt;" style="text;html=1;align=left;verticalAlign=middle;whiteSpace=wrap;rounded=0;fillColor=#f8cecc;strokeColor=#b85450;dashed=1;fontSize=14;" vertex="1" parent="1">
          <mxGeometry x="408.49" y="855" width="618.34" height="36" as="geometry" />
        </mxCell>
        <mxCell id="6PRzyqPz1Fcx_c-LDYBp-218" value="&lt;h2&gt;6、实现原理&lt;/h2&gt;" style="rounded=1;whiteSpace=wrap;html=1;fillColor=#e1d5e7;strokeColor=#9673a6;fontStyle=1;align=left;" vertex="1" parent="1">
          <mxGeometry x="234.8499999999998" y="1210" width="147.33" height="40" as="geometry" />
        </mxCell>
        <mxCell id="6PRzyqPz1Fcx_c-LDYBp-219" value="&lt;span style=&quot;font-size: 16px;&quot;&gt;&lt;b&gt;单核处理器：&lt;/b&gt;&lt;br&gt;1. 使用能完成多步操作的&lt;b&gt;单条指令，如x86架构的 inc 指令&lt;/b&gt;&lt;br&gt;2. &lt;b&gt;关闭中断&lt;/b&gt;后执行一系列指令，完成后再&lt;b&gt;打开中断&lt;/b&gt;&lt;/span&gt;" style="text;html=1;align=left;verticalAlign=middle;whiteSpace=wrap;rounded=0;fillColor=#e1d5e7;strokeColor=#9673a6;dashed=1;fontSize=14;" vertex="1" parent="1">
          <mxGeometry x="411.18000000000006" y="1165" width="618.34" height="60" as="geometry" />
        </mxCell>
        <mxCell id="6PRzyqPz1Fcx_c-LDYBp-220" value="&lt;b style=&quot;font-size: 16px;&quot;&gt;多核处理器（SMP）：&lt;/b&gt;&lt;br&gt;&lt;span style=&quot;font-size: 16px;&quot;&gt;1. 提供了&lt;b&gt;内存独占的加载&lt;/b&gt;指令：ldrex/ldxr&lt;/span&gt;&lt;br&gt;&lt;span style=&quot;font-size: 16px;&quot;&gt;2. 提供了&lt;b&gt;内存独占的存储&lt;/b&gt;指令：strex/stxr&lt;/span&gt;" style="text;html=1;align=left;verticalAlign=middle;whiteSpace=wrap;rounded=0;fillColor=#e1d5e7;strokeColor=#9673a6;dashed=1;fontSize=14;" vertex="1" parent="1">
          <mxGeometry x="411.18000000000006" y="1235" width="618.34" height="60" as="geometry" />
        </mxCell>
        <mxCell id="6PRzyqPz1Fcx_c-LDYBp-221" value="" style="shape=curlyBracket;whiteSpace=wrap;html=1;rounded=1;labelPosition=left;verticalLabelPosition=middle;align=right;verticalAlign=middle;fillColor=#e1d5e7;strokeColor=#9673a6;strokeWidth=2;" vertex="1" parent="1">
          <mxGeometry x="382.18" y="1195" width="29" height="70" as="geometry" />
        </mxCell>
        <mxCell id="6PRzyqPz1Fcx_c-LDYBp-223" value="&lt;span style=&quot;font-size: 16px;&quot;&gt;&lt;b&gt;通过原子API&lt;br&gt;可完成对整数或位的原子操作&lt;br&gt;避免之前读取和设置冲突&lt;/b&gt;&lt;/span&gt;" style="text;html=1;align=left;verticalAlign=middle;whiteSpace=wrap;rounded=0;fillColor=#f8cecc;strokeColor=#b85450;dashed=1;fontSize=14;" vertex="1" parent="1">
          <mxGeometry x="1128" y="839" width="210" height="60" as="geometry" />
        </mxCell>
        <mxCell id="6PRzyqPz1Fcx_c-LDYBp-224" value="&lt;font style=&quot;font-size: 20px;&quot;&gt;🌻Make By Dakkk&lt;/font&gt;" style="html=1;shadow=0;dashed=0;shape=mxgraph.bootstrap.rrect;rSize=5;strokeColor=#1CA5B8;strokeWidth=1;fillColor=none;fontColor=#1CA5B8;whiteSpace=wrap;align=center;verticalAlign=middle;spacingLeft=0;fontStyle=1;fontSize=16;spacing=5;" vertex="1" parent="1">
          <mxGeometry x="251.65999999999997" y="734.6100000000001" width="111.67" height="70.39" as="geometry" />
        </mxCell>
      </root>
    </mxGraphModel>
  </diagram>
</mxfile>
